<svg width="1440" height="1080" viewBox="0 0 1440 1080" fill="none" xmlns="http://www.w3.org/2000/svg">
<g clip-path="url(#clip0_89_54)">
<rect width="1440" height="1080" fill="#004D3F"/>
<g opacity="0.29">
<path d="M35.2955 1048.36V1060H33.8864V1049.84H33.8182L30.9773 1051.73V1050.3L33.8864 1048.36H35.2955Z" fill="white"/>
<path d="M429.568 1060L434.773 1049.7V1049.61H428.773V1048.36H436.227V1049.68L431.045 1060H429.568Z" fill="white"/>
<path d="M232.932 1057.61V1056.45L238.045 1048.36H238.886V1050.16H238.318L234.455 1056.27V1056.36H241.341V1057.61H232.932ZM238.409 1060V1057.26V1056.72V1048.36H239.75V1060H238.409Z" fill="white"/>
<path d="M635.295 1048.36V1060H633.886V1049.84H633.818L630.977 1051.73V1050.3L633.886 1048.36H635.295ZM642.438 1060.16C641.581 1060.16 640.852 1059.93 640.25 1059.46C639.648 1058.99 639.188 1058.31 638.869 1057.42C638.551 1056.53 638.392 1055.45 638.392 1054.18C638.392 1052.92 638.551 1051.85 638.869 1050.96C639.191 1050.07 639.653 1049.38 640.256 1048.91C640.862 1048.44 641.589 1048.2 642.438 1048.2C643.286 1048.2 644.011 1048.44 644.614 1048.91C645.22 1049.38 645.682 1050.07 646 1050.96C646.322 1051.85 646.483 1052.92 646.483 1054.18C646.483 1055.45 646.324 1056.53 646.006 1057.42C645.688 1058.31 645.227 1058.99 644.625 1059.46C644.023 1059.93 643.294 1060.16 642.438 1060.16ZM642.438 1058.91C643.286 1058.91 643.945 1058.5 644.415 1057.68C644.884 1056.86 645.119 1055.7 645.119 1054.18C645.119 1053.17 645.011 1052.32 644.795 1051.61C644.583 1050.9 644.277 1050.36 643.875 1049.99C643.477 1049.62 642.998 1049.43 642.438 1049.43C641.597 1049.43 640.939 1049.85 640.466 1050.68C639.992 1051.5 639.756 1052.67 639.756 1054.18C639.756 1055.19 639.862 1056.05 640.074 1056.75C640.286 1057.45 640.591 1057.99 640.989 1058.36C641.39 1058.73 641.873 1058.91 642.438 1058.91Z" fill="white"/>
<path d="M95.2045 1060V1058.98L99.0455 1054.77C99.4962 1054.28 99.8674 1053.85 100.159 1053.49C100.451 1053.12 100.667 1052.78 100.807 1052.45C100.951 1052.13 101.023 1051.79 101.023 1051.43C101.023 1051.02 100.924 1050.67 100.727 1050.37C100.534 1050.07 100.269 1049.84 99.9318 1049.68C99.5947 1049.51 99.2159 1049.43 98.7955 1049.43C98.3485 1049.43 97.9583 1049.52 97.625 1049.71C97.2955 1049.89 97.0398 1050.15 96.858 1050.48C96.6799 1050.81 96.5909 1051.19 96.5909 1051.64H95.25C95.25 1050.95 95.4072 1050.36 95.7216 1049.84C96.036 1049.33 96.464 1048.92 97.0057 1048.64C97.5511 1048.35 98.1629 1048.2 98.8409 1048.2C99.5227 1048.2 100.127 1048.35 100.653 1048.64C101.18 1048.92 101.593 1049.31 101.892 1049.8C102.191 1050.29 102.341 1050.83 102.341 1051.43C102.341 1051.86 102.263 1052.28 102.108 1052.69C101.956 1053.09 101.691 1053.55 101.312 1054.05C100.938 1054.54 100.417 1055.15 99.75 1055.86L97.1364 1058.66V1058.75H102.545V1060H95.2045Z" fill="white"/>
<path d="M29.2045 993V991.977L33.0455 987.773C33.4962 987.28 33.8674 986.852 34.1591 986.489C34.4508 986.121 34.6667 985.777 34.8068 985.455C34.9508 985.129 35.0227 984.788 35.0227 984.432C35.0227 984.023 34.9242 983.669 34.7273 983.369C34.5341 983.07 34.2689 982.839 33.9318 982.676C33.5947 982.513 33.2159 982.432 32.7955 982.432C32.3485 982.432 31.9583 982.525 31.625 982.71C31.2955 982.892 31.0398 983.148 30.858 983.477C30.6799 983.807 30.5909 984.193 30.5909 984.636H29.25C29.25 983.955 29.4072 983.356 29.7216 982.841C30.036 982.326 30.464 981.924 31.0057 981.636C31.5511 981.348 32.1629 981.205 32.8409 981.205C33.5227 981.205 34.1269 981.348 34.6534 981.636C35.1799 981.924 35.5928 982.312 35.892 982.801C36.1913 983.29 36.3409 983.833 36.3409 984.432C36.3409 984.86 36.2633 985.278 36.108 985.688C35.9564 986.093 35.6913 986.545 35.3125 987.045C34.9375 987.542 34.4167 988.148 33.75 988.864L31.1364 991.659V991.75H36.5455V993H29.2045Z" fill="white"/>
<path d="M32.8409 790.159C32.1742 790.159 31.5739 790.027 31.0398 789.761C30.5057 789.496 30.0777 789.133 29.7557 788.67C29.4337 788.208 29.2576 787.682 29.2273 787.091H30.5909C30.6439 787.617 30.8826 788.053 31.3068 788.398C31.7348 788.739 32.2462 788.909 32.8409 788.909C33.3182 788.909 33.7424 788.797 34.1136 788.574C34.4886 788.35 34.7822 788.044 34.9943 787.653C35.2102 787.259 35.3182 786.814 35.3182 786.318C35.3182 785.811 35.2064 785.358 34.983 784.96C34.7633 784.559 34.4602 784.242 34.0739 784.011C33.6875 783.78 33.2462 783.663 32.75 783.659C32.3939 783.655 32.0284 783.71 31.6534 783.824C31.2784 783.934 30.9697 784.076 30.7273 784.25L29.4091 784.091L30.1136 778.364H36.1591V779.614H31.2955L30.8864 783.045H30.9545C31.1932 782.856 31.4924 782.699 31.8523 782.574C32.2121 782.449 32.5871 782.386 32.9773 782.386C33.6894 782.386 34.3239 782.557 34.8807 782.898C35.4413 783.235 35.8807 783.697 36.1989 784.284C36.5208 784.871 36.6818 785.542 36.6818 786.295C36.6818 787.038 36.5152 787.701 36.1818 788.284C35.8523 788.864 35.3977 789.322 34.8182 789.659C34.2386 789.992 33.5795 790.159 32.8409 790.159Z" fill="white"/>
<path d="M32.9091 509.205C33.3864 509.208 33.8636 509.299 34.3409 509.477C34.8182 509.655 35.2538 509.951 35.6477 510.364C36.0417 510.773 36.358 511.331 36.5966 512.04C36.8352 512.748 36.9545 513.636 36.9545 514.705C36.9545 515.739 36.8561 516.657 36.6591 517.46C36.4659 518.259 36.1856 518.934 35.8182 519.483C35.4545 520.032 35.0114 520.449 34.4886 520.733C33.9697 521.017 33.3826 521.159 32.7273 521.159C32.0758 521.159 31.4943 521.03 30.983 520.773C30.4754 520.511 30.0587 520.15 29.733 519.688C29.411 519.222 29.2045 518.682 29.1136 518.068H30.5C30.625 518.602 30.8731 519.044 31.2443 519.392C31.6193 519.737 32.1136 519.909 32.7273 519.909C33.625 519.909 34.3333 519.517 34.8523 518.733C35.375 517.949 35.6364 516.841 35.6364 515.409H35.5455C35.3333 515.727 35.0814 516.002 34.7898 516.233C34.4981 516.464 34.1742 516.642 33.8182 516.767C33.4621 516.892 33.0833 516.955 32.6818 516.955C32.0152 516.955 31.4034 516.79 30.8466 516.46C30.2936 516.127 29.8504 515.67 29.517 515.091C29.1875 514.508 29.0227 513.841 29.0227 513.091C29.0227 512.379 29.1818 511.727 29.5 511.136C29.822 510.542 30.2727 510.068 30.8523 509.716C31.4356 509.364 32.1212 509.193 32.9091 509.205ZM32.9091 510.455C32.4318 510.455 32.0019 510.574 31.6193 510.812C31.2405 511.047 30.9394 511.366 30.7159 511.767C30.4962 512.165 30.3864 512.606 30.3864 513.091C30.3864 513.576 30.4924 514.017 30.7045 514.415C30.9205 514.809 31.214 515.123 31.5852 515.358C31.9602 515.589 32.3864 515.705 32.8636 515.705C33.2235 515.705 33.5587 515.634 33.8693 515.494C34.1799 515.35 34.4508 515.155 34.6818 514.909C34.9167 514.659 35.1004 514.377 35.233 514.062C35.3655 513.744 35.4318 513.413 35.4318 513.068C35.4318 512.614 35.322 512.187 35.1023 511.79C34.8864 511.392 34.5871 511.07 34.2045 510.824C33.8258 510.578 33.3939 510.455 32.9091 510.455Z" fill="white"/>
<path d="M33.1364 926.159C32.3864 926.159 31.7178 926.03 31.1307 925.773C30.5473 925.515 30.0833 925.157 29.7386 924.699C29.3977 924.237 29.2121 923.701 29.1818 923.091H30.6136C30.6439 923.466 30.7727 923.79 31 924.062C31.2273 924.331 31.5246 924.54 31.892 924.688C32.2595 924.835 32.6667 924.909 33.1136 924.909C33.6136 924.909 34.0568 924.822 34.4432 924.648C34.8295 924.473 35.1326 924.231 35.3523 923.92C35.572 923.61 35.6818 923.25 35.6818 922.841C35.6818 922.413 35.5758 922.036 35.3636 921.71C35.1515 921.381 34.8409 921.123 34.4318 920.938C34.0227 920.752 33.5227 920.659 32.9318 920.659H32V919.409H32.9318C33.3939 919.409 33.7992 919.326 34.1477 919.159C34.5 918.992 34.7746 918.758 34.9716 918.455C35.1723 918.152 35.2727 917.795 35.2727 917.386C35.2727 916.992 35.1856 916.65 35.0114 916.358C34.8371 916.066 34.5909 915.839 34.2727 915.676C33.9583 915.513 33.5871 915.432 33.1591 915.432C32.7576 915.432 32.3788 915.506 32.0227 915.653C31.6705 915.797 31.3826 916.008 31.1591 916.284C30.9356 916.557 30.8144 916.886 30.7955 917.273H29.4318C29.4545 916.663 29.6383 916.129 29.983 915.67C30.3277 915.208 30.7784 914.848 31.3352 914.591C31.8958 914.333 32.5114 914.205 33.1818 914.205C33.9015 914.205 34.5189 914.35 35.0341 914.642C35.5492 914.93 35.9451 915.311 36.2216 915.784C36.4981 916.258 36.6364 916.769 36.6364 917.318C36.6364 917.973 36.464 918.532 36.1193 918.994C35.7784 919.456 35.3144 919.777 34.7273 919.955V920.045C35.4621 920.167 36.036 920.479 36.4489 920.983C36.8617 921.483 37.0682 922.102 37.0682 922.841C37.0682 923.473 36.8958 924.042 36.5511 924.545C36.2102 925.045 35.7443 925.439 35.1534 925.727C34.5625 926.015 33.8902 926.159 33.1364 926.159Z" fill="white"/>
<path d="M33.0682 723.159C32.5909 723.152 32.1136 723.061 31.6364 722.886C31.1591 722.712 30.7235 722.419 30.3295 722.006C29.9356 721.589 29.6193 721.027 29.3807 720.318C29.142 719.606 29.0227 718.712 29.0227 717.636C29.0227 716.606 29.1193 715.693 29.3125 714.898C29.5057 714.098 29.786 713.426 30.1534 712.881C30.5208 712.331 30.964 711.915 31.483 711.631C32.0057 711.347 32.5947 711.205 33.25 711.205C33.9015 711.205 34.4811 711.335 34.9886 711.597C35.5 711.854 35.9167 712.214 36.2386 712.676C36.5606 713.138 36.7689 713.67 36.8636 714.273H35.4773C35.3485 713.75 35.0985 713.316 34.7273 712.972C34.3561 712.627 33.8636 712.455 33.25 712.455C32.3485 712.455 31.6383 712.847 31.1193 713.631C30.6042 714.415 30.3447 715.515 30.3409 716.932H30.4318C30.6439 716.61 30.8958 716.335 31.1875 716.108C31.483 715.877 31.8087 715.699 32.1648 715.574C32.5208 715.449 32.8977 715.386 33.2955 715.386C33.9621 715.386 34.572 715.553 35.125 715.886C35.678 716.216 36.1212 716.672 36.4545 717.256C36.7879 717.835 36.9545 718.5 36.9545 719.25C36.9545 719.97 36.7936 720.629 36.4716 721.227C36.1496 721.822 35.697 722.295 35.1136 722.648C34.5341 722.996 33.8523 723.167 33.0682 723.159ZM33.0682 721.909C33.5455 721.909 33.9735 721.79 34.3523 721.551C34.7348 721.312 35.036 720.992 35.2557 720.591C35.4792 720.189 35.5909 719.742 35.5909 719.25C35.5909 718.769 35.483 718.331 35.267 717.938C35.0549 717.54 34.7614 717.223 34.3864 716.989C34.0152 716.754 33.5909 716.636 33.1136 716.636C32.7538 716.636 32.4186 716.708 32.108 716.852C31.7973 716.992 31.5246 717.186 31.2898 717.432C31.0587 717.678 30.8769 717.96 30.7443 718.278C30.6117 718.593 30.5455 718.924 30.5455 719.273C30.5455 719.735 30.6534 720.167 30.8693 720.568C31.089 720.97 31.3883 721.294 31.767 721.54C32.1496 721.786 32.5833 721.909 33.0682 721.909Z" fill="white"/>
<path d="M26.2955 442.364V454H24.8864V443.841H24.8182L21.9773 445.727V444.295L24.8864 442.364H26.2955ZM33.4375 454.159C32.5814 454.159 31.8523 453.926 31.25 453.46C30.6477 452.991 30.1875 452.311 29.8693 451.42C29.5511 450.527 29.392 449.447 29.392 448.182C29.392 446.924 29.5511 445.85 29.8693 444.96C30.1913 444.066 30.6534 443.384 31.2557 442.915C31.8617 442.441 32.589 442.205 33.4375 442.205C34.286 442.205 35.0114 442.441 35.6136 442.915C36.2197 443.384 36.6818 444.066 37 444.96C37.322 445.85 37.483 446.924 37.483 448.182C37.483 449.447 37.3239 450.527 37.0057 451.42C36.6875 452.311 36.2273 452.991 35.625 453.46C35.0227 453.926 34.2936 454.159 33.4375 454.159ZM33.4375 452.909C34.286 452.909 34.9451 452.5 35.4148 451.682C35.8845 450.864 36.1193 449.697 36.1193 448.182C36.1193 447.174 36.0114 446.316 35.7955 445.608C35.5833 444.9 35.2765 444.36 34.875 443.989C34.4773 443.617 33.9981 443.432 33.4375 443.432C32.5966 443.432 31.9394 443.847 31.4659 444.676C30.9924 445.502 30.7557 446.67 30.7557 448.182C30.7557 449.189 30.8617 450.045 31.0739 450.75C31.286 451.455 31.5909 451.991 31.9886 452.358C32.3902 452.725 32.8731 452.909 33.4375 452.909Z" fill="white"/>
<path d="M28.4205 374.364V386H27.0114V375.841H26.9432L24.1023 377.727V376.295L27.0114 374.364H28.4205ZM35.858 374.364V386H34.4489V375.841H34.3807L31.5398 377.727V376.295L34.4489 374.364H35.858Z" fill="white"/>
<path d="M26.1705 307.364V319H24.7614V308.841H24.6932L21.8523 310.727V309.295L24.7614 307.364H26.1705ZM29.517 319V317.977L33.358 313.773C33.8087 313.28 34.1799 312.852 34.4716 312.489C34.7633 312.121 34.9792 311.777 35.1193 311.455C35.2633 311.129 35.3352 310.788 35.3352 310.432C35.3352 310.023 35.2367 309.669 35.0398 309.369C34.8466 309.07 34.5814 308.839 34.2443 308.676C33.9072 308.513 33.5284 308.432 33.108 308.432C32.661 308.432 32.2708 308.525 31.9375 308.71C31.608 308.892 31.3523 309.148 31.1705 309.477C30.9924 309.807 30.9034 310.193 30.9034 310.636H29.5625C29.5625 309.955 29.7197 309.356 30.0341 308.841C30.3485 308.326 30.7765 307.924 31.3182 307.636C31.8636 307.348 32.4754 307.205 33.1534 307.205C33.8352 307.205 34.4394 307.348 34.9659 307.636C35.4924 307.924 35.9053 308.312 36.2045 308.801C36.5038 309.29 36.6534 309.833 36.6534 310.432C36.6534 310.86 36.5758 311.278 36.4205 311.688C36.2689 312.093 36.0038 312.545 35.625 313.045C35.25 313.542 34.7292 314.148 34.0625 314.864L31.4489 317.659V317.75H36.858V319H29.517Z" fill="white"/>
<path d="M25.6705 240.364V252H24.2614V241.841H24.1932L21.3523 243.727V242.295L24.2614 240.364H25.6705ZM32.9489 252.159C32.1989 252.159 31.5303 252.03 30.9432 251.773C30.3598 251.515 29.8958 251.157 29.5511 250.699C29.2102 250.237 29.0246 249.701 28.9943 249.091H30.4261C30.4564 249.466 30.5852 249.79 30.8125 250.062C31.0398 250.331 31.3371 250.54 31.7045 250.688C32.072 250.835 32.4792 250.909 32.9261 250.909C33.4261 250.909 33.8693 250.822 34.2557 250.648C34.642 250.473 34.9451 250.231 35.1648 249.92C35.3845 249.61 35.4943 249.25 35.4943 248.841C35.4943 248.413 35.3883 248.036 35.1761 247.71C34.964 247.381 34.6534 247.123 34.2443 246.938C33.8352 246.752 33.3352 246.659 32.7443 246.659H31.8125V245.409H32.7443C33.2064 245.409 33.6117 245.326 33.9602 245.159C34.3125 244.992 34.5871 244.758 34.7841 244.455C34.9848 244.152 35.0852 243.795 35.0852 243.386C35.0852 242.992 34.9981 242.65 34.8239 242.358C34.6496 242.066 34.4034 241.839 34.0852 241.676C33.7708 241.513 33.3996 241.432 32.9716 241.432C32.5701 241.432 32.1913 241.506 31.8352 241.653C31.483 241.797 31.1951 242.008 30.9716 242.284C30.7481 242.557 30.6269 242.886 30.608 243.273H29.2443C29.267 242.663 29.4508 242.129 29.7955 241.67C30.1402 241.208 30.5909 240.848 31.1477 240.591C31.7083 240.333 32.3239 240.205 32.9943 240.205C33.714 240.205 34.3314 240.35 34.8466 240.642C35.3617 240.93 35.7576 241.311 36.0341 241.784C36.3106 242.258 36.4489 242.769 36.4489 243.318C36.4489 243.973 36.2765 244.532 35.9318 244.994C35.5909 245.456 35.1269 245.777 34.5398 245.955V246.045C35.2746 246.167 35.8485 246.479 36.2614 246.983C36.6742 247.483 36.8807 248.102 36.8807 248.841C36.8807 249.473 36.7083 250.042 36.3636 250.545C36.0227 251.045 35.5568 251.439 34.9659 251.727C34.375 252.015 33.7027 252.159 32.9489 252.159Z" fill="white"/>
<path d="M26.1236 104.364V116H24.7145V105.841H24.6463L21.8054 107.727V106.295L24.7145 104.364H26.1236ZM33.1065 116.159C32.4399 116.159 31.8395 116.027 31.3054 115.761C30.7713 115.496 30.3433 115.133 30.0213 114.67C29.6993 114.208 29.5232 113.682 29.4929 113.091H30.8565C30.9096 113.617 31.1482 114.053 31.5724 114.398C32.0005 114.739 32.5118 114.909 33.1065 114.909C33.5838 114.909 34.008 114.797 34.3793 114.574C34.7543 114.35 35.0478 114.044 35.2599 113.653C35.4759 113.259 35.5838 112.814 35.5838 112.318C35.5838 111.811 35.4721 111.358 35.2486 110.96C35.0289 110.559 34.7259 110.242 34.3395 110.011C33.9531 109.78 33.5118 109.663 33.0156 109.659C32.6596 109.655 32.294 109.71 31.919 109.824C31.544 109.934 31.2353 110.076 30.9929 110.25L29.6747 110.091L30.3793 104.364H36.4247V105.614H31.5611L31.152 109.045H31.2202C31.4588 108.856 31.758 108.699 32.1179 108.574C32.4777 108.449 32.8527 108.386 33.2429 108.386C33.955 108.386 34.5895 108.557 35.1463 108.898C35.7069 109.235 36.1463 109.697 36.4645 110.284C36.7865 110.871 36.9474 111.542 36.9474 112.295C36.9474 113.038 36.7808 113.701 36.4474 114.284C36.1179 114.864 35.6634 115.322 35.0838 115.659C34.5043 115.992 33.8452 116.159 33.1065 116.159Z" fill="white"/>
<path d="M25.5923 174.364V186H24.1832V175.841H24.1151L21.2741 177.727V176.295L24.1832 174.364H25.5923ZM28.6662 183.614V182.455L33.7798 174.364H34.6207V176.159H34.0526L30.1889 182.273V182.364H37.0753V183.614H28.6662ZM34.1435 186V183.261V182.722V174.364H35.4844V186H34.1435Z" fill="white"/>
<path d="M25.8736 38.3636V50H24.4645V39.8409H24.3963L21.5554 41.7273V40.2955L24.4645 38.3636H25.8736ZM33.0838 50.1591C32.6065 50.1515 32.1293 50.0606 31.652 49.8864C31.1747 49.7121 30.7391 49.4186 30.3452 49.0057C29.9512 48.589 29.6349 48.0265 29.3963 47.3182C29.1577 46.6061 29.0384 45.7121 29.0384 44.6364C29.0384 43.6061 29.1349 42.6932 29.3281 41.8977C29.5213 41.0985 29.8016 40.4261 30.169 39.8807C30.5365 39.3314 30.9796 38.9148 31.4986 38.6307C32.0213 38.3466 32.6103 38.2045 33.2656 38.2045C33.9171 38.2045 34.4967 38.3352 35.0043 38.5966C35.5156 38.8542 35.9323 39.214 36.2543 39.6761C36.5762 40.1383 36.7846 40.6705 36.8793 41.2727H35.4929C35.3641 40.75 35.1141 40.3163 34.7429 39.9716C34.3717 39.6269 33.8793 39.4545 33.2656 39.4545C32.3641 39.4545 31.6539 39.8466 31.1349 40.6307C30.6198 41.4148 30.3603 42.5152 30.3565 43.9318H30.4474C30.6596 43.6098 30.9115 43.3352 31.2031 43.108C31.4986 42.8769 31.8243 42.6989 32.1804 42.5739C32.5365 42.4489 32.9134 42.3864 33.3111 42.3864C33.9777 42.3864 34.5876 42.553 35.1406 42.8864C35.6937 43.2159 36.1368 43.6723 36.4702 44.2557C36.8035 44.8352 36.9702 45.5 36.9702 46.25C36.9702 46.9697 36.8092 47.6288 36.4872 48.2273C36.1652 48.822 35.7126 49.2955 35.1293 49.6477C34.5497 49.9962 33.8679 50.1667 33.0838 50.1591ZM33.0838 48.9091C33.5611 48.9091 33.9891 48.7898 34.3679 48.5511C34.7505 48.3125 35.0516 47.9924 35.2713 47.5909C35.4948 47.1894 35.6065 46.7424 35.6065 46.25C35.6065 45.7689 35.4986 45.3314 35.2827 44.9375C35.0705 44.5398 34.777 44.2235 34.402 43.9886C34.0308 43.7538 33.6065 43.6364 33.1293 43.6364C32.7694 43.6364 32.4342 43.7083 32.1236 43.8523C31.813 43.9924 31.5402 44.1856 31.3054 44.4318C31.0743 44.678 30.8925 44.9602 30.7599 45.2784C30.6274 45.5928 30.5611 45.9242 30.5611 46.2727C30.5611 46.7348 30.669 47.1667 30.8849 47.5682C31.1046 47.9697 31.4039 48.2936 31.7827 48.5398C32.1652 48.786 32.599 48.9091 33.0838 48.9091Z" fill="white"/>
<path d="M28.9318 855.614V854.455L34.0455 846.364H34.8864V848.159H34.3182L30.4545 854.273V854.364H37.3409V855.614H28.9318ZM34.4091 858V855.261V854.722V846.364H35.75V858H34.4091Z" fill="white"/>
<path d="M32.9318 587.159C32.1515 587.159 31.4621 587.021 30.8636 586.744C30.2689 586.464 29.8049 586.08 29.4716 585.591C29.1383 585.098 28.9735 584.538 28.9773 583.909C28.9735 583.417 29.0701 582.962 29.267 582.545C29.464 582.125 29.733 581.775 30.0739 581.494C30.4186 581.21 30.803 581.03 31.2273 580.955V580.886C30.6705 580.742 30.2273 580.43 29.8977 579.949C29.5682 579.464 29.4053 578.913 29.4091 578.295C29.4053 577.705 29.5549 577.176 29.858 576.71C30.161 576.244 30.5777 575.877 31.108 575.608C31.642 575.339 32.25 575.205 32.9318 575.205C33.6061 575.205 34.2083 575.339 34.7386 575.608C35.2689 575.877 35.6856 576.244 35.9886 576.71C36.2955 577.176 36.4508 577.705 36.4545 578.295C36.4508 578.913 36.2822 579.464 35.9489 579.949C35.6193 580.43 35.1818 580.742 34.6364 580.886V580.955C35.0568 581.03 35.4356 581.21 35.7727 581.494C36.1098 581.775 36.3788 582.125 36.5795 582.545C36.7803 582.962 36.8826 583.417 36.8864 583.909C36.8826 584.538 36.7121 585.098 36.375 585.591C36.0417 586.08 35.5777 586.464 34.983 586.744C34.392 587.021 33.7083 587.159 32.9318 587.159ZM32.9318 585.909C33.4583 585.909 33.9129 585.824 34.2955 585.653C34.678 585.483 34.9735 585.242 35.1818 584.932C35.3902 584.621 35.4962 584.258 35.5 583.841C35.4962 583.402 35.3826 583.013 35.1591 582.676C34.9356 582.339 34.6307 582.074 34.2443 581.881C33.8617 581.687 33.4242 581.591 32.9318 581.591C32.4356 581.591 31.9924 581.687 31.6023 581.881C31.2159 582.074 30.911 582.339 30.6875 582.676C30.4678 583.013 30.3598 583.402 30.3636 583.841C30.3598 584.258 30.4602 584.621 30.6648 584.932C30.8731 585.242 31.1705 585.483 31.5568 585.653C31.9432 585.824 32.4015 585.909 32.9318 585.909ZM32.9318 580.386C33.3485 580.386 33.7178 580.303 34.0398 580.136C34.3655 579.97 34.6212 579.737 34.8068 579.438C34.9924 579.138 35.0871 578.788 35.0909 578.386C35.0871 577.992 34.9943 577.65 34.8125 577.358C34.6307 577.062 34.3788 576.835 34.0568 576.676C33.7348 576.513 33.3598 576.432 32.9318 576.432C32.4962 576.432 32.1155 576.513 31.7898 576.676C31.464 576.835 31.2121 577.062 31.0341 577.358C30.8561 577.65 30.7689 577.992 30.7727 578.386C30.7689 578.788 30.858 579.138 31.0398 579.438C31.2254 579.737 31.4811 579.97 31.8068 580.136C32.1326 580.303 32.5076 580.386 32.9318 580.386Z" fill="white"/>
<path d="M29.5682 655L34.7727 644.705V644.614H28.7727V643.364H36.2273V644.682L31.0455 655H29.5682Z" fill="white"/>
<path d="M496.932 1060.16C496.152 1060.16 495.462 1060.02 494.864 1059.74C494.269 1059.46 493.805 1059.08 493.472 1058.59C493.138 1058.1 492.973 1057.54 492.977 1056.91C492.973 1056.42 493.07 1055.96 493.267 1055.55C493.464 1055.12 493.733 1054.77 494.074 1054.49C494.419 1054.21 494.803 1054.03 495.227 1053.95V1053.89C494.67 1053.74 494.227 1053.43 493.898 1052.95C493.568 1052.46 493.405 1051.91 493.409 1051.3C493.405 1050.7 493.555 1050.18 493.858 1049.71C494.161 1049.24 494.578 1048.88 495.108 1048.61C495.642 1048.34 496.25 1048.2 496.932 1048.2C497.606 1048.2 498.208 1048.34 498.739 1048.61C499.269 1048.88 499.686 1049.24 499.989 1049.71C500.295 1050.18 500.451 1050.7 500.455 1051.3C500.451 1051.91 500.282 1052.46 499.949 1052.95C499.619 1053.43 499.182 1053.74 498.636 1053.89V1053.95C499.057 1054.03 499.436 1054.21 499.773 1054.49C500.11 1054.77 500.379 1055.12 500.58 1055.55C500.78 1055.96 500.883 1056.42 500.886 1056.91C500.883 1057.54 500.712 1058.1 500.375 1058.59C500.042 1059.08 499.578 1059.46 498.983 1059.74C498.392 1060.02 497.708 1060.16 496.932 1060.16ZM496.932 1058.91C497.458 1058.91 497.913 1058.82 498.295 1058.65C498.678 1058.48 498.973 1058.24 499.182 1057.93C499.39 1057.62 499.496 1057.26 499.5 1056.84C499.496 1056.4 499.383 1056.01 499.159 1055.68C498.936 1055.34 498.631 1055.07 498.244 1054.88C497.862 1054.69 497.424 1054.59 496.932 1054.59C496.436 1054.59 495.992 1054.69 495.602 1054.88C495.216 1055.07 494.911 1055.34 494.688 1055.68C494.468 1056.01 494.36 1056.4 494.364 1056.84C494.36 1057.26 494.46 1057.62 494.665 1057.93C494.873 1058.24 495.17 1058.48 495.557 1058.65C495.943 1058.82 496.402 1058.91 496.932 1058.91ZM496.932 1053.39C497.348 1053.39 497.718 1053.3 498.04 1053.14C498.366 1052.97 498.621 1052.74 498.807 1052.44C498.992 1052.14 499.087 1051.79 499.091 1051.39C499.087 1050.99 498.994 1050.65 498.812 1050.36C498.631 1050.06 498.379 1049.84 498.057 1049.68C497.735 1049.51 497.36 1049.43 496.932 1049.43C496.496 1049.43 496.116 1049.51 495.79 1049.68C495.464 1049.84 495.212 1050.06 495.034 1050.36C494.856 1050.65 494.769 1050.99 494.773 1051.39C494.769 1051.79 494.858 1052.14 495.04 1052.44C495.225 1052.74 495.481 1052.97 495.807 1053.14C496.133 1053.3 496.508 1053.39 496.932 1053.39Z" fill="white"/>
<path d="M300.841 1060.16C300.174 1060.16 299.574 1060.03 299.04 1059.76C298.506 1059.5 298.078 1059.13 297.756 1058.67C297.434 1058.21 297.258 1057.68 297.227 1057.09H298.591C298.644 1057.62 298.883 1058.05 299.307 1058.4C299.735 1058.74 300.246 1058.91 300.841 1058.91C301.318 1058.91 301.742 1058.8 302.114 1058.57C302.489 1058.35 302.782 1058.04 302.994 1057.65C303.21 1057.26 303.318 1056.81 303.318 1056.32C303.318 1055.81 303.206 1055.36 302.983 1054.96C302.763 1054.56 302.46 1054.24 302.074 1054.01C301.688 1053.78 301.246 1053.66 300.75 1053.66C300.394 1053.66 300.028 1053.71 299.653 1053.82C299.278 1053.93 298.97 1054.08 298.727 1054.25L297.409 1054.09L298.114 1048.36H304.159V1049.61H299.295L298.886 1053.05H298.955C299.193 1052.86 299.492 1052.7 299.852 1052.57C300.212 1052.45 300.587 1052.39 300.977 1052.39C301.689 1052.39 302.324 1052.56 302.881 1052.9C303.441 1053.23 303.881 1053.7 304.199 1054.28C304.521 1054.87 304.682 1055.54 304.682 1056.3C304.682 1057.04 304.515 1057.7 304.182 1058.28C303.852 1058.86 303.398 1059.32 302.818 1059.66C302.239 1059.99 301.58 1060.16 300.841 1060.16Z" fill="white"/>
<path d="M701.295 1048.36V1060H699.886V1049.84H699.818L696.977 1051.73V1050.3L699.886 1048.36H701.295ZM708.733 1048.36V1060H707.324V1049.84H707.256L704.415 1051.73V1050.3L707.324 1048.36H708.733Z" fill="white"/>
<path d="M168.136 1060.16C167.386 1060.16 166.718 1060.03 166.131 1059.77C165.547 1059.52 165.083 1059.16 164.739 1058.7C164.398 1058.24 164.212 1057.7 164.182 1057.09H165.614C165.644 1057.47 165.773 1057.79 166 1058.06C166.227 1058.33 166.525 1058.54 166.892 1058.69C167.259 1058.84 167.667 1058.91 168.114 1058.91C168.614 1058.91 169.057 1058.82 169.443 1058.65C169.83 1058.47 170.133 1058.23 170.352 1057.92C170.572 1057.61 170.682 1057.25 170.682 1056.84C170.682 1056.41 170.576 1056.04 170.364 1055.71C170.152 1055.38 169.841 1055.12 169.432 1054.94C169.023 1054.75 168.523 1054.66 167.932 1054.66H167V1053.41H167.932C168.394 1053.41 168.799 1053.33 169.148 1053.16C169.5 1052.99 169.775 1052.76 169.972 1052.45C170.172 1052.15 170.273 1051.8 170.273 1051.39C170.273 1050.99 170.186 1050.65 170.011 1050.36C169.837 1050.07 169.591 1049.84 169.273 1049.68C168.958 1049.51 168.587 1049.43 168.159 1049.43C167.758 1049.43 167.379 1049.51 167.023 1049.65C166.67 1049.8 166.383 1050.01 166.159 1050.28C165.936 1050.56 165.814 1050.89 165.795 1051.27H164.432C164.455 1050.66 164.638 1050.13 164.983 1049.67C165.328 1049.21 165.778 1048.85 166.335 1048.59C166.896 1048.33 167.511 1048.2 168.182 1048.2C168.902 1048.2 169.519 1048.35 170.034 1048.64C170.549 1048.93 170.945 1049.31 171.222 1049.78C171.498 1050.26 171.636 1050.77 171.636 1051.32C171.636 1051.97 171.464 1052.53 171.119 1052.99C170.778 1053.46 170.314 1053.78 169.727 1053.95V1054.05C170.462 1054.17 171.036 1054.48 171.449 1054.98C171.862 1055.48 172.068 1056.1 172.068 1056.84C172.068 1057.47 171.896 1058.04 171.551 1058.55C171.21 1059.05 170.744 1059.44 170.153 1059.73C169.563 1060.02 168.89 1060.16 168.136 1060.16Z" fill="white"/>
<path d="M565.909 1048.2C566.386 1048.21 566.864 1048.3 567.341 1048.48C567.818 1048.66 568.254 1048.95 568.648 1049.36C569.042 1049.77 569.358 1050.33 569.597 1051.04C569.835 1051.75 569.955 1052.64 569.955 1053.7C569.955 1054.74 569.856 1055.66 569.659 1056.46C569.466 1057.26 569.186 1057.93 568.818 1058.48C568.455 1059.03 568.011 1059.45 567.489 1059.73C566.97 1060.02 566.383 1060.16 565.727 1060.16C565.076 1060.16 564.494 1060.03 563.983 1059.77C563.475 1059.51 563.059 1059.15 562.733 1058.69C562.411 1058.22 562.205 1057.68 562.114 1057.07H563.5C563.625 1057.6 563.873 1058.04 564.244 1058.39C564.619 1058.74 565.114 1058.91 565.727 1058.91C566.625 1058.91 567.333 1058.52 567.852 1057.73C568.375 1056.95 568.636 1055.84 568.636 1054.41H568.545C568.333 1054.73 568.081 1055 567.79 1055.23C567.498 1055.46 567.174 1055.64 566.818 1055.77C566.462 1055.89 566.083 1055.95 565.682 1055.95C565.015 1055.95 564.403 1055.79 563.847 1055.46C563.294 1055.13 562.85 1054.67 562.517 1054.09C562.188 1053.51 562.023 1052.84 562.023 1052.09C562.023 1051.38 562.182 1050.73 562.5 1050.14C562.822 1049.54 563.273 1049.07 563.852 1048.72C564.436 1048.36 565.121 1048.19 565.909 1048.2ZM565.909 1049.45C565.432 1049.45 565.002 1049.57 564.619 1049.81C564.241 1050.05 563.939 1050.37 563.716 1050.77C563.496 1051.16 563.386 1051.61 563.386 1052.09C563.386 1052.58 563.492 1053.02 563.705 1053.41C563.92 1053.81 564.214 1054.12 564.585 1054.36C564.96 1054.59 565.386 1054.7 565.864 1054.7C566.223 1054.7 566.559 1054.63 566.869 1054.49C567.18 1054.35 567.451 1054.16 567.682 1053.91C567.917 1053.66 568.1 1053.38 568.233 1053.06C568.366 1052.74 568.432 1052.41 568.432 1052.07C568.432 1051.61 568.322 1051.19 568.102 1050.79C567.886 1050.39 567.587 1050.07 567.205 1049.82C566.826 1049.58 566.394 1049.45 565.909 1049.45Z" fill="white"/>
<path d="M370.068 1060.16C369.591 1060.15 369.114 1060.06 368.636 1059.89C368.159 1059.71 367.723 1059.42 367.33 1059.01C366.936 1058.59 366.619 1058.03 366.381 1057.32C366.142 1056.61 366.023 1055.71 366.023 1054.64C366.023 1053.61 366.119 1052.69 366.312 1051.9C366.506 1051.1 366.786 1050.43 367.153 1049.88C367.521 1049.33 367.964 1048.91 368.483 1048.63C369.006 1048.35 369.595 1048.2 370.25 1048.2C370.902 1048.2 371.481 1048.34 371.989 1048.6C372.5 1048.85 372.917 1049.21 373.239 1049.68C373.561 1050.14 373.769 1050.67 373.864 1051.27H372.477C372.348 1050.75 372.098 1050.32 371.727 1049.97C371.356 1049.63 370.864 1049.45 370.25 1049.45C369.348 1049.45 368.638 1049.85 368.119 1050.63C367.604 1051.41 367.345 1052.52 367.341 1053.93H367.432C367.644 1053.61 367.896 1053.34 368.188 1053.11C368.483 1052.88 368.809 1052.7 369.165 1052.57C369.521 1052.45 369.898 1052.39 370.295 1052.39C370.962 1052.39 371.572 1052.55 372.125 1052.89C372.678 1053.22 373.121 1053.67 373.455 1054.26C373.788 1054.84 373.955 1055.5 373.955 1056.25C373.955 1056.97 373.794 1057.63 373.472 1058.23C373.15 1058.82 372.697 1059.3 372.114 1059.65C371.534 1060 370.852 1060.17 370.068 1060.16ZM370.068 1058.91C370.545 1058.91 370.973 1058.79 371.352 1058.55C371.735 1058.31 372.036 1057.99 372.256 1057.59C372.479 1057.19 372.591 1056.74 372.591 1056.25C372.591 1055.77 372.483 1055.33 372.267 1054.94C372.055 1054.54 371.761 1054.22 371.386 1053.99C371.015 1053.75 370.591 1053.64 370.114 1053.64C369.754 1053.64 369.419 1053.71 369.108 1053.85C368.797 1053.99 368.525 1054.19 368.29 1054.43C368.059 1054.68 367.877 1054.96 367.744 1055.28C367.612 1055.59 367.545 1055.92 367.545 1056.27C367.545 1056.73 367.653 1057.17 367.869 1057.57C368.089 1057.97 368.388 1058.29 368.767 1058.54C369.15 1058.79 369.583 1058.91 370.068 1058.91Z" fill="white"/>
<path d="M768.295 1048.36V1060H766.886V1049.84H766.818L763.977 1051.73V1050.3L766.886 1048.36H768.295ZM771.642 1060V1058.98L775.483 1054.77C775.934 1054.28 776.305 1053.85 776.597 1053.49C776.888 1053.12 777.104 1052.78 777.244 1052.45C777.388 1052.13 777.46 1051.79 777.46 1051.43C777.46 1051.02 777.362 1050.67 777.165 1050.37C776.972 1050.07 776.706 1049.84 776.369 1049.68C776.032 1049.51 775.653 1049.43 775.233 1049.43C774.786 1049.43 774.396 1049.52 774.062 1049.71C773.733 1049.89 773.477 1050.15 773.295 1050.48C773.117 1050.81 773.028 1051.19 773.028 1051.64H771.688C771.688 1050.95 771.845 1050.36 772.159 1049.84C772.473 1049.33 772.902 1048.92 773.443 1048.64C773.989 1048.35 774.6 1048.2 775.278 1048.2C775.96 1048.2 776.564 1048.35 777.091 1048.64C777.617 1048.92 778.03 1049.31 778.33 1049.8C778.629 1050.29 778.778 1050.83 778.778 1051.43C778.778 1051.86 778.701 1052.28 778.545 1052.69C778.394 1053.09 778.129 1053.55 777.75 1054.05C777.375 1054.54 776.854 1055.15 776.188 1055.86L773.574 1058.66V1058.75H778.983V1060H771.642Z" fill="white"/>
<path d="M902.295 1048.36V1060H900.886V1049.84H900.818L897.977 1051.73V1050.3L900.886 1048.36H902.295ZM905.369 1057.61V1056.45L910.483 1048.36H911.324V1050.16H910.756L906.892 1056.27V1056.36H913.778V1057.61H905.369ZM910.847 1060V1057.26V1056.72V1048.36H912.188V1060H910.847Z" fill="white"/>
<path d="M835.295 1048.36V1060H833.886V1049.84H833.818L830.977 1051.73V1050.3L833.886 1048.36H835.295ZM842.574 1060.16C841.824 1060.16 841.155 1060.03 840.568 1059.77C839.985 1059.52 839.521 1059.16 839.176 1058.7C838.835 1058.24 838.65 1057.7 838.619 1057.09H840.051C840.081 1057.47 840.21 1057.79 840.438 1058.06C840.665 1058.33 840.962 1058.54 841.33 1058.69C841.697 1058.84 842.104 1058.91 842.551 1058.91C843.051 1058.91 843.494 1058.82 843.881 1058.65C844.267 1058.47 844.57 1058.23 844.79 1057.92C845.009 1057.61 845.119 1057.25 845.119 1056.84C845.119 1056.41 845.013 1056.04 844.801 1055.71C844.589 1055.38 844.278 1055.12 843.869 1054.94C843.46 1054.75 842.96 1054.66 842.369 1054.66H841.438V1053.41H842.369C842.831 1053.41 843.237 1053.33 843.585 1053.16C843.938 1052.99 844.212 1052.76 844.409 1052.45C844.61 1052.15 844.71 1051.8 844.71 1051.39C844.71 1050.99 844.623 1050.65 844.449 1050.36C844.275 1050.07 844.028 1049.84 843.71 1049.68C843.396 1049.51 843.025 1049.43 842.597 1049.43C842.195 1049.43 841.816 1049.51 841.46 1049.65C841.108 1049.8 840.82 1050.01 840.597 1050.28C840.373 1050.56 840.252 1050.89 840.233 1051.27H838.869C838.892 1050.66 839.076 1050.13 839.42 1049.67C839.765 1049.21 840.216 1048.85 840.773 1048.59C841.333 1048.33 841.949 1048.2 842.619 1048.2C843.339 1048.2 843.956 1048.35 844.472 1048.64C844.987 1048.93 845.383 1049.31 845.659 1049.78C845.936 1050.26 846.074 1050.77 846.074 1051.32C846.074 1051.97 845.902 1052.53 845.557 1052.99C845.216 1053.46 844.752 1053.78 844.165 1053.95V1054.05C844.9 1054.17 845.473 1054.48 845.886 1054.98C846.299 1055.48 846.506 1056.1 846.506 1056.84C846.506 1057.47 846.333 1058.04 845.989 1058.55C845.648 1059.05 845.182 1059.44 844.591 1059.73C844 1060.02 843.328 1060.16 842.574 1060.16Z" fill="white"/>
<path d="M969.295 1048.36V1060H967.886V1049.84H967.818L964.977 1051.73V1050.3L967.886 1048.36H969.295ZM976.278 1060.16C975.612 1060.16 975.011 1060.03 974.477 1059.76C973.943 1059.5 973.515 1059.13 973.193 1058.67C972.871 1058.21 972.695 1057.68 972.665 1057.09H974.028C974.081 1057.62 974.32 1058.05 974.744 1058.4C975.172 1058.74 975.684 1058.91 976.278 1058.91C976.756 1058.91 977.18 1058.8 977.551 1058.57C977.926 1058.35 978.22 1058.04 978.432 1057.65C978.648 1057.26 978.756 1056.81 978.756 1056.32C978.756 1055.81 978.644 1055.36 978.42 1054.96C978.201 1054.56 977.898 1054.24 977.511 1054.01C977.125 1053.78 976.684 1053.66 976.188 1053.66C975.831 1053.66 975.466 1053.71 975.091 1053.82C974.716 1053.93 974.407 1054.08 974.165 1054.25L972.847 1054.09L973.551 1048.36H979.597V1049.61H974.733L974.324 1053.05H974.392C974.631 1052.86 974.93 1052.7 975.29 1052.57C975.65 1052.45 976.025 1052.39 976.415 1052.39C977.127 1052.39 977.761 1052.56 978.318 1052.9C978.879 1053.23 979.318 1053.7 979.636 1054.28C979.958 1054.87 980.119 1055.54 980.119 1056.3C980.119 1057.04 979.953 1057.7 979.619 1058.28C979.29 1058.86 978.835 1059.32 978.256 1059.66C977.676 1059.99 977.017 1060.16 976.278 1060.16Z" fill="white"/>
<path d="M1038.3 1048.36V1060H1036.89V1049.84H1036.82L1033.98 1051.73V1050.3L1036.89 1048.36H1038.3ZM1045.51 1060.16C1045.03 1060.15 1044.55 1060.06 1044.07 1059.89C1043.6 1059.71 1043.16 1059.42 1042.77 1059.01C1042.37 1058.59 1042.06 1058.03 1041.82 1057.32C1041.58 1056.61 1041.46 1055.71 1041.46 1054.64C1041.46 1053.61 1041.56 1052.69 1041.75 1051.9C1041.94 1051.1 1042.22 1050.43 1042.59 1049.88C1042.96 1049.33 1043.4 1048.91 1043.92 1048.63C1044.44 1048.35 1045.03 1048.2 1045.69 1048.2C1046.34 1048.2 1046.92 1048.34 1047.43 1048.6C1047.94 1048.85 1048.35 1049.21 1048.68 1049.68C1049 1050.14 1049.21 1050.67 1049.3 1051.27H1047.91C1047.79 1050.75 1047.54 1050.32 1047.16 1049.97C1046.79 1049.63 1046.3 1049.45 1045.69 1049.45C1044.79 1049.45 1044.08 1049.85 1043.56 1050.63C1043.04 1051.41 1042.78 1052.52 1042.78 1053.93H1042.87C1043.08 1053.61 1043.33 1053.34 1043.62 1053.11C1043.92 1052.88 1044.25 1052.7 1044.6 1052.57C1044.96 1052.45 1045.34 1052.39 1045.73 1052.39C1046.4 1052.39 1047.01 1052.55 1047.56 1052.89C1048.12 1053.22 1048.56 1053.67 1048.89 1054.26C1049.23 1054.84 1049.39 1055.5 1049.39 1056.25C1049.39 1056.97 1049.23 1057.63 1048.91 1058.23C1048.59 1058.82 1048.13 1059.3 1047.55 1059.65C1046.97 1060 1046.29 1060.17 1045.51 1060.16ZM1045.51 1058.91C1045.98 1058.91 1046.41 1058.79 1046.79 1058.55C1047.17 1058.31 1047.47 1057.99 1047.69 1057.59C1047.92 1057.19 1048.03 1056.74 1048.03 1056.25C1048.03 1055.77 1047.92 1055.33 1047.7 1054.94C1047.49 1054.54 1047.2 1054.22 1046.82 1053.99C1046.45 1053.75 1046.03 1053.64 1045.55 1053.64C1045.19 1053.64 1044.86 1053.71 1044.55 1053.85C1044.23 1053.99 1043.96 1054.19 1043.73 1054.43C1043.5 1054.68 1043.31 1054.96 1043.18 1055.28C1043.05 1055.59 1042.98 1055.92 1042.98 1056.27C1042.98 1056.73 1043.09 1057.17 1043.31 1057.57C1043.53 1057.97 1043.83 1058.29 1044.2 1058.54C1044.59 1058.79 1045.02 1058.91 1045.51 1058.91Z" fill="white"/>
<path d="M1104.3 1048.36V1060H1102.89V1049.84H1102.82L1099.98 1051.73V1050.3L1102.89 1048.36H1104.3ZM1108.01 1060L1113.21 1049.7V1049.61H1107.21V1048.36H1114.66V1049.68L1109.48 1060H1108.01Z" fill="white"/>
<path d="M1173.3 1048.36V1060H1171.89V1049.84H1171.82L1168.98 1051.73V1050.3L1171.89 1048.36H1173.3ZM1180.37 1060.16C1179.59 1060.16 1178.9 1060.02 1178.3 1059.74C1177.71 1059.46 1177.24 1059.08 1176.91 1058.59C1176.58 1058.1 1176.41 1057.54 1176.41 1056.91C1176.41 1056.42 1176.51 1055.96 1176.7 1055.55C1176.9 1055.12 1177.17 1054.77 1177.51 1054.49C1177.86 1054.21 1178.24 1054.03 1178.66 1053.95V1053.89C1178.11 1053.74 1177.66 1053.43 1177.34 1052.95C1177.01 1052.46 1176.84 1051.91 1176.85 1051.3C1176.84 1050.7 1176.99 1050.18 1177.3 1049.71C1177.6 1049.24 1178.02 1048.88 1178.55 1048.61C1179.08 1048.34 1179.69 1048.2 1180.37 1048.2C1181.04 1048.2 1181.65 1048.34 1182.18 1048.61C1182.71 1048.88 1183.12 1049.24 1183.43 1049.71C1183.73 1050.18 1183.89 1050.7 1183.89 1051.3C1183.89 1051.91 1183.72 1052.46 1183.39 1052.95C1183.06 1053.43 1182.62 1053.74 1182.07 1053.89V1053.95C1182.49 1054.03 1182.87 1054.21 1183.21 1054.49C1183.55 1054.77 1183.82 1055.12 1184.02 1055.55C1184.22 1055.96 1184.32 1056.42 1184.32 1056.91C1184.32 1057.54 1184.15 1058.1 1183.81 1058.59C1183.48 1059.08 1183.02 1059.46 1182.42 1059.74C1181.83 1060.02 1181.15 1060.16 1180.37 1060.16ZM1180.37 1058.91C1180.9 1058.91 1181.35 1058.82 1181.73 1058.65C1182.12 1058.48 1182.41 1058.24 1182.62 1057.93C1182.83 1057.62 1182.93 1057.26 1182.94 1056.84C1182.93 1056.4 1182.82 1056.01 1182.6 1055.68C1182.37 1055.34 1182.07 1055.07 1181.68 1054.88C1181.3 1054.69 1180.86 1054.59 1180.37 1054.59C1179.87 1054.59 1179.43 1054.69 1179.04 1054.88C1178.65 1055.07 1178.35 1055.34 1178.12 1055.68C1177.91 1056.01 1177.8 1056.4 1177.8 1056.84C1177.8 1057.26 1177.9 1057.62 1178.1 1057.93C1178.31 1058.24 1178.61 1058.48 1178.99 1058.65C1179.38 1058.82 1179.84 1058.91 1180.37 1058.91ZM1180.37 1053.39C1180.79 1053.39 1181.16 1053.3 1181.48 1053.14C1181.8 1052.97 1182.06 1052.74 1182.24 1052.44C1182.43 1052.14 1182.52 1051.79 1182.53 1051.39C1182.52 1050.99 1182.43 1050.65 1182.25 1050.36C1182.07 1050.06 1181.82 1049.84 1181.49 1049.68C1181.17 1049.51 1180.8 1049.43 1180.37 1049.43C1179.93 1049.43 1179.55 1049.51 1179.23 1049.68C1178.9 1049.84 1178.65 1050.06 1178.47 1050.36C1178.29 1050.65 1178.21 1050.99 1178.21 1051.39C1178.21 1051.79 1178.3 1052.14 1178.48 1052.44C1178.66 1052.74 1178.92 1052.97 1179.24 1053.14C1179.57 1053.3 1179.95 1053.39 1180.37 1053.39Z" fill="white"/>
<path d="M1301.2 1060V1058.98L1305.05 1054.77C1305.5 1054.28 1305.87 1053.85 1306.16 1053.49C1306.45 1053.12 1306.67 1052.78 1306.81 1052.45C1306.95 1052.13 1307.02 1051.79 1307.02 1051.43C1307.02 1051.02 1306.92 1050.67 1306.73 1050.37C1306.53 1050.07 1306.27 1049.84 1305.93 1049.68C1305.59 1049.51 1305.22 1049.43 1304.8 1049.43C1304.35 1049.43 1303.96 1049.52 1303.62 1049.71C1303.3 1049.89 1303.04 1050.15 1302.86 1050.48C1302.68 1050.81 1302.59 1051.19 1302.59 1051.64H1301.25C1301.25 1050.95 1301.41 1050.36 1301.72 1049.84C1302.04 1049.33 1302.46 1048.92 1303.01 1048.64C1303.55 1048.35 1304.16 1048.2 1304.84 1048.2C1305.52 1048.2 1306.13 1048.35 1306.65 1048.64C1307.18 1048.92 1307.59 1049.31 1307.89 1049.8C1308.19 1050.29 1308.34 1050.83 1308.34 1051.43C1308.34 1051.86 1308.26 1052.28 1308.11 1052.69C1307.96 1053.09 1307.69 1053.55 1307.31 1054.05C1306.94 1054.54 1306.42 1055.15 1305.75 1055.86L1303.14 1058.66V1058.75H1308.55V1060H1301.2ZM1314.69 1060.16C1313.83 1060.16 1313.1 1059.93 1312.5 1059.46C1311.9 1058.99 1311.44 1058.31 1311.12 1057.42C1310.8 1056.53 1310.64 1055.45 1310.64 1054.18C1310.64 1052.92 1310.8 1051.85 1311.12 1050.96C1311.44 1050.07 1311.9 1049.38 1312.51 1048.91C1313.11 1048.44 1313.84 1048.2 1314.69 1048.2C1315.54 1048.2 1316.26 1048.44 1316.86 1048.91C1317.47 1049.38 1317.93 1050.07 1318.25 1050.96C1318.57 1051.85 1318.73 1052.92 1318.73 1054.18C1318.73 1055.45 1318.57 1056.53 1318.26 1057.42C1317.94 1058.31 1317.48 1058.99 1316.88 1059.46C1316.27 1059.93 1315.54 1060.16 1314.69 1060.16ZM1314.69 1058.91C1315.54 1058.91 1316.2 1058.5 1316.66 1057.68C1317.13 1056.86 1317.37 1055.7 1317.37 1054.18C1317.37 1053.17 1317.26 1052.32 1317.05 1051.61C1316.83 1050.9 1316.53 1050.36 1316.12 1049.99C1315.73 1049.62 1315.25 1049.43 1314.69 1049.43C1313.85 1049.43 1313.19 1049.85 1312.72 1050.68C1312.24 1051.5 1312.01 1052.67 1312.01 1054.18C1312.01 1055.19 1312.11 1056.05 1312.32 1056.75C1312.54 1057.45 1312.84 1057.99 1313.24 1058.36C1313.64 1058.73 1314.12 1058.91 1314.69 1058.91Z" fill="white"/>
<path d="M1239.3 1048.36V1060H1237.89V1049.84H1237.82L1234.98 1051.73V1050.3L1237.89 1048.36H1239.3ZM1246.35 1048.2C1246.82 1048.21 1247.3 1048.3 1247.78 1048.48C1248.26 1048.66 1248.69 1048.95 1249.09 1049.36C1249.48 1049.77 1249.8 1050.33 1250.03 1051.04C1250.27 1051.75 1250.39 1052.64 1250.39 1053.7C1250.39 1054.74 1250.29 1055.66 1250.1 1056.46C1249.9 1057.26 1249.62 1057.93 1249.26 1058.48C1248.89 1059.03 1248.45 1059.45 1247.93 1059.73C1247.41 1060.02 1246.82 1060.16 1246.16 1060.16C1245.51 1060.16 1244.93 1060.03 1244.42 1059.77C1243.91 1059.51 1243.5 1059.15 1243.17 1058.69C1242.85 1058.22 1242.64 1057.68 1242.55 1057.07H1243.94C1244.06 1057.6 1244.31 1058.04 1244.68 1058.39C1245.06 1058.74 1245.55 1058.91 1246.16 1058.91C1247.06 1058.91 1247.77 1058.52 1248.29 1057.73C1248.81 1056.95 1249.07 1055.84 1249.07 1054.41H1248.98C1248.77 1054.73 1248.52 1055 1248.23 1055.23C1247.94 1055.46 1247.61 1055.64 1247.26 1055.77C1246.9 1055.89 1246.52 1055.95 1246.12 1055.95C1245.45 1055.95 1244.84 1055.79 1244.28 1055.46C1243.73 1055.13 1243.29 1054.67 1242.95 1054.09C1242.62 1053.51 1242.46 1052.84 1242.46 1052.09C1242.46 1051.38 1242.62 1050.73 1242.94 1050.14C1243.26 1049.54 1243.71 1049.07 1244.29 1048.72C1244.87 1048.36 1245.56 1048.19 1246.35 1048.2ZM1246.35 1049.45C1245.87 1049.45 1245.44 1049.57 1245.06 1049.81C1244.68 1050.05 1244.38 1050.37 1244.15 1050.77C1243.93 1051.16 1243.82 1051.61 1243.82 1052.09C1243.82 1052.58 1243.93 1053.02 1244.14 1053.41C1244.36 1053.81 1244.65 1054.12 1245.02 1054.36C1245.4 1054.59 1245.82 1054.7 1246.3 1054.7C1246.66 1054.7 1247 1054.63 1247.31 1054.49C1247.62 1054.35 1247.89 1054.16 1248.12 1053.91C1248.35 1053.66 1248.54 1053.38 1248.67 1053.06C1248.8 1052.74 1248.87 1052.41 1248.87 1052.07C1248.87 1051.61 1248.76 1051.19 1248.54 1050.79C1248.32 1050.39 1248.02 1050.07 1247.64 1049.82C1247.26 1049.58 1246.83 1049.45 1246.35 1049.45Z" fill="white"/>
<path d="M1367.2 1060V1058.98L1371.05 1054.77C1371.5 1054.28 1371.87 1053.85 1372.16 1053.49C1372.45 1053.12 1372.67 1052.78 1372.81 1052.45C1372.95 1052.13 1373.02 1051.79 1373.02 1051.43C1373.02 1051.02 1372.92 1050.67 1372.73 1050.37C1372.53 1050.07 1372.27 1049.84 1371.93 1049.68C1371.59 1049.51 1371.22 1049.43 1370.8 1049.43C1370.35 1049.43 1369.96 1049.52 1369.62 1049.71C1369.3 1049.89 1369.04 1050.15 1368.86 1050.48C1368.68 1050.81 1368.59 1051.19 1368.59 1051.64H1367.25C1367.25 1050.95 1367.41 1050.36 1367.72 1049.84C1368.04 1049.33 1368.46 1048.92 1369.01 1048.64C1369.55 1048.35 1370.16 1048.2 1370.84 1048.2C1371.52 1048.2 1372.13 1048.35 1372.65 1048.64C1373.18 1048.92 1373.59 1049.31 1373.89 1049.8C1374.19 1050.29 1374.34 1050.83 1374.34 1051.43C1374.34 1051.86 1374.26 1052.28 1374.11 1052.69C1373.96 1053.09 1373.69 1053.55 1373.31 1054.05C1372.94 1054.54 1372.42 1055.15 1371.75 1055.86L1369.14 1058.66V1058.75H1374.55V1060H1367.2ZM1380.98 1048.36V1060H1379.57V1049.84H1379.51L1376.66 1051.73V1050.3L1379.57 1048.36H1380.98Z" fill="white"/>
</g>
<g opacity="0.29">
<line y1="30.5" x2="1440" y2="30.5" stroke="white"/>
<line y1="166.5" x2="1440" y2="166.5" stroke="white"/>
<line y1="98.5" x2="1440" y2="98.5" stroke="white"/>
<line y1="234.5" x2="1440" y2="234.5" stroke="white"/>
<line y1="300.5" x2="1440" y2="300.5" stroke="white"/>
<line y1="436.5" x2="1440" y2="436.5" stroke="white"/>
<line y1="368.5" x2="1440" y2="368.5" stroke="white"/>
<line y1="504.5" x2="1440" y2="504.5" stroke="white"/>
<line y1="570.5" x2="1440" y2="570.5" stroke="white"/>
<line y1="638.5" x2="1440" y2="638.5" stroke="white"/>
<line y1="704.5" x2="1440" y2="704.5" stroke="white"/>
<line y1="840.5" x2="1440" y2="840.5" stroke="white"/>
<line y1="772.5" x2="1440" y2="772.5" stroke="white"/>
<line y1="908.5" x2="1440" y2="908.5" stroke="white"/>
<line y1="976.5" x2="1440" y2="976.5" stroke="white"/>
<line y1="1044.5" x2="1440" y2="1044.5" stroke="white"/>
<line x1="34" y1="1009.5" x2="1440" y2="1009.5" stroke="white"/>
<line x1="34" y1="941.5" x2="1440" y2="941.5" stroke="white"/>
<line x1="34" y1="874.5" x2="1440" y2="874.5" stroke="white"/>
<line x1="34" y1="806.5" x2="1440" y2="806.5" stroke="white"/>
<line x1="34" y1="739.5" x2="1440" y2="739.5" stroke="white"/>
<line x1="34" y1="671.5" x2="1440" y2="671.5" stroke="white"/>
<line x1="34" y1="604.5" x2="1440" y2="604.5" stroke="white"/>
<line x1="34" y1="536.5" x2="1440" y2="536.5" stroke="white"/>
<line x1="34" y1="468.5" x2="1440" y2="468.5" stroke="white"/>
<line x1="34" y1="400.5" x2="1440" y2="400.5" stroke="white"/>
<line x1="34" y1="333.5" x2="1440" y2="333.5" stroke="white"/>
<line x1="34" y1="265.5" x2="1440" y2="265.5" stroke="white"/>
<line x1="34" y1="200.5" x2="1440" y2="200.5" stroke="white"/>
<line x1="34" y1="132.5" x2="1440" y2="132.5" stroke="white"/>
<line x1="34" y1="65.5" x2="1440" y2="65.5" stroke="white"/>
<line x1="212.5" y1="1053" x2="212.5" y2="1.82943e-08" stroke="white"/>
<line x1="348.5" y1="1053" x2="348.5" y2="1.82943e-08" stroke="white"/>
<line x1="280.5" y1="1053" x2="280.5" y2="1.82943e-08" stroke="white"/>
<line x1="416.5" y1="1053" x2="416.5" y2="1.82943e-08" stroke="white"/>
<line x1="482.5" y1="1053" x2="482.5" y2="1.82943e-08" stroke="white"/>
<line x1="618.5" y1="1053" x2="618.5" y2="1.82943e-08" stroke="white"/>
<line x1="550.5" y1="1053" x2="550.5" y2="1.82943e-08" stroke="white"/>
<line x1="686.5" y1="1053" x2="686.5" y2="1.82943e-08" stroke="white"/>
<line x1="752.5" y1="1053" x2="752.5" y2="1.82943e-08" stroke="white"/>
<line x1="820.5" y1="1053" x2="820.5" y2="1.82943e-08" stroke="white"/>
<line x1="886.5" y1="1053" x2="886.5" y2="1.82943e-08" stroke="white"/>
<line x1="1022.5" y1="1053" x2="1022.5" y2="1.82943e-08" stroke="white"/>
<line x1="954.5" y1="1053" x2="954.5" y2="1.82943e-08" stroke="white"/>
<line x1="1090.5" y1="1053" x2="1090.5" y2="1.82943e-08" stroke="white"/>
<line x1="1257.5" y1="1080" x2="1257.5" y2="1.87633e-08" stroke="white"/>
<line x1="1158.5" y1="1053" x2="1158.5" y2="1.82943e-08" stroke="white"/>
<line x1="1325.5" y1="1080" x2="1325.5" y2="1.87633e-08" stroke="white"/>
<line x1="1223.5" y1="1053" x2="1223.5" y2="1.82943e-08" stroke="white"/>
<line x1="1390.5" y1="1080" x2="1390.5" y2="1.87633e-08" stroke="white"/>
<line x1="1425.5" y1="1053" x2="1425.5" y2="1.82943e-08" stroke="white"/>
<line x1="1191.5" y1="1080" x2="1191.5" y2="1.71867e-08" stroke="white"/>
<line x1="1358.5" y1="1053" x2="1358.5" y2="1.6757e-08" stroke="white"/>
<line x1="1123.5" y1="1080" x2="1123.5" y2="1.71867e-08" stroke="white"/>
<line x1="1290.5" y1="1053" x2="1290.5" y2="1.6757e-08" stroke="white"/>
<line x1="1056.5" y1="1080" x2="1056.5" y2="1.71867e-08" stroke="white"/>
<line x1="988.5" y1="1080" x2="988.5" y2="1.71867e-08" stroke="white"/>
<line x1="921.5" y1="1080" x2="921.5" y2="1.71867e-08" stroke="white"/>
<line x1="853.5" y1="1080" x2="853.5" y2="1.71867e-08" stroke="white"/>
<line x1="786.5" y1="1080" x2="786.5" y2="1.71867e-08" stroke="white"/>
<line x1="718.5" y1="1080" x2="718.5" y2="1.71867e-08" stroke="white"/>
<line x1="650.5" y1="1080" x2="650.5" y2="1.71867e-08" stroke="white"/>
<line x1="582.5" y1="1080" x2="582.5" y2="1.71867e-08" stroke="white"/>
<line x1="515.5" y1="1080" x2="515.5" y2="1.71867e-08" stroke="white"/>
<line x1="447.5" y1="1080" x2="447.5" y2="1.71867e-08" stroke="white"/>
<line x1="382.5" y1="1080" x2="382.5" y2="1.71867e-08" stroke="white"/>
<line x1="314.5" y1="1080" x2="314.5" y2="1.71867e-08" stroke="white"/>
<line x1="247.5" y1="1080" x2="247.5" y2="1.71867e-08" stroke="white"/>
<line x1="75.5" y1="1053" x2="75.4999" y2="1.82943e-08" stroke="white"/>
<line x1="40.5" y1="1080" x2="40.4999" y2="1.87633e-08" stroke="white"/>
<line x1="143.5" y1="1053" x2="143.5" y2="1.82943e-08" stroke="white"/>
<line x1="177.5" y1="1080" x2="177.5" y2="1.71867e-08" stroke="white"/>
<line x1="110.5" y1="1080" x2="110.5" y2="1.71867e-08" stroke="white"/>
<line x1="40.5671" y1="1044.75" x2="627.567" y2="28.7499" stroke="white"/>
<line x1="247.648" y1="1044.65" x2="1258.65" y2="28.6473" stroke="white"/>
<line x1="1258.65" y1="1045.35" x2="250.646" y2="34.353" stroke="white"/>
</g>
</g>
<defs>
<clipPath id="clip0_89_54">
<rect width="1440" height="1080" fill="white"/>
</clipPath>
</defs>
</svg>
