<svg width="715" height="715" viewBox="0 0 715 715" fill="none" xmlns="http://www.w3.org/2000/svg">
<path d="M460.875 665.125C398.552 686.101 331.18 686.766 268.455 667.024C205.73 647.281 150.885 608.15 111.81 555.259C72.736 502.369 51.4472 438.446 51.007 372.689C50.5668 306.932 70.9979 242.73 109.361 189.321C147.724 135.912 202.04 96.05 264.495 75.4697C326.951 54.8893 394.325 54.6521 456.923 74.7919C519.522 94.9318 574.118 134.411 612.856 187.548C651.594 240.685 672.477 304.741 672.5 370.5C671.495 395.706 668.444 420.789 663.375 445.5" stroke="#E19CC5" stroke-width="37.5"/>
<path d="M435 607.375C412.645 632.774 388.137 656.195 361.75 677.375" stroke="#E19CC5" stroke-width="37.5"/>
<path d="M361.75 56.125C445.631 129.411 497.534 232.59 506.375 343.625C508.19 363.781 508.566 384.041 507.5 404.25" stroke="#E19CC5" stroke-width="37.5"/>
<path d="M361.75 56.125C316.239 95.7935 279.676 144.68 254.484 199.546C229.293 254.411 216.047 314.004 215.625 374.375C215.625 576.875 306.625 636.875 361.375 677.375" stroke="#E19CC5" stroke-width="37.5"/>
<path d="M91.375 217.375H633.625" stroke="#E19CC5" stroke-width="37.5"/>
<path d="M361.75 56V677.375" stroke="#E19CC5" stroke-width="37.5"/>
<path d="M99.875 537.125H424.75" stroke="#E19CC5" stroke-width="37.5"/>
<path d="M51 374.375L672.5 366.75" stroke="#E19CC5" stroke-width="37.5"/>
<path d="M631.375 681.125L686.75 625.625L586.75 525.625L643.625 489.25C644.454 488.76 645.114 488.03 645.519 487.157C645.923 486.283 646.053 485.307 645.89 484.358C645.727 483.409 645.28 482.532 644.608 481.843C643.935 481.154 643.07 480.686 642.125 480.5L451 435.75C450.211 435.589 449.394 435.627 448.623 435.859C447.851 436.091 447.149 436.51 446.58 437.08C446.01 437.649 445.591 438.351 445.359 439.123C445.126 439.894 445.089 440.711 445.25 441.5L486.75 636.25C486.949 637.197 487.426 638.063 488.119 638.738C488.812 639.413 489.691 639.866 490.642 640.04C491.594 640.215 492.576 640.102 493.463 639.716C494.35 639.331 495.103 638.69 495.625 637.875L531.375 581.125L631.375 681.125Z" fill="#E19CC5" stroke="#E19CC5" stroke-width="37.5"/>
</svg>
